# xmcd
#
# Track frame offsets:
#	150
#	9070
#	59074
#	71452
#	85955
#	139165
#	161647
#	198026
#	220131
#	288146
#	306181
#	317305
#	338706
#
# Disc length: 4633 seconds
# Revision: 0
# Processed by: cddbd v1.5.2PL0 Copyright (c) Steve Scherf et al.
# Submitted via: dBpowerAMP V12.0
#
DISCID=ad12170d
DTITLE=Johann Wolfgang Goethe - Leben und Werk 2
DYEAR=2012
DGENRE=
TTITLE0=Stimmen
TTITLE1=Die Leiden des jungen Werther
TTITLE2=Anleitung zum Unglücklichsein
TTITLE3=Dichtung und Wirklichkeit
TTITLE4=Wilhelm Meisters Lehrjahre
TTITLE5=Relativierung und Bildungsvielfalt
TTITLE6=Passionsweg eines Schwärmers
TTITLE7="Das Romantische nenne ich das Kranke"
TTITLE8=Faust - Der Tragödie erster Teil
TTITLE9=Verschlungene Tragik
TTITLE10="der Geist, der stets verneint"
TTITLE11=Der Olympier
TTITLE12=Stimmen
EXTD=
EXTT0=
EXTT1=
EXTT2=
EXTT3=
EXTT4=
EXTT5=
EXTT6=
EXTT7=
EXTT8=
EXTT9=
EXTT10=
EXTT11=
EXTT12=
PLAYORDER=
